<svg id="Layer_1" data-name="Layer 1" preserveAspectRatio="none" version="1.1" width="100" height="27.312" xmlns="http://www.w3.org/2000/svg"><defs id="defs1"><style id="style1">.cls-1{fill:#1a1a1a}</style></defs><g id="g13"><path class="cls-1" d="M70.08 12.85V.247h2.235V12.85Z" id="path1" style="fill:#fafafa;fill-opacity:1;stroke-width:.620732"/><path class="cls-1" d="M12.6.248v2.235H3.415a1.18 1.18 0 0 0-1.18 1.18v1.179h8.07v2.234h-8.07v5.773H0V3.662A3.414 3.414 0 0 1 3.352.248Z" id="path2" style="fill:#fafafa;fill-opacity:1;stroke-width:.620732"/><path class="cls-1" d="m24.519 10.615 1.18 2.234h-2.546l-1.18-2.234-1.178-2.36v-.123a2.235 2.235 0 0 0-1.925-1.056h-2.296v5.773h-2.235V.25h7.945A3.352 3.352 0 0 1 25.636 3.6a3.414 3.414 0 0 1-1.986 3.104l-.993.248zM22.284 4.78l.497-.125a1.117 1.117 0 0 0 .683-1.055 1.18 1.18 0 0 0-.31-.807 1.117 1.117 0 0 0-.87-.31h-5.71v2.359z" id="path3" style="fill:#fafafa;fill-opacity:1;stroke-width:.620732"/><path class="cls-1" d="M40.286 12.85H37.74l-1.118-2.235-2.793-5.4-2.731 5.4-1.18 2.234h-2.483l1.18-2.234L33.83.248l5.276 10.367Z" id="path4" style="fill:#fafafa;fill-opacity:1;stroke-width:.620732"/><path d="M85.661 0v2.545l-2.235 1.18-5.4 2.73 5.4 2.732 2.235 1.18v2.544l-2.235-1.18L73.06 6.457l10.366-5.277Z" id="path5" style="fill:#17d7a0;fill-opacity:1;stroke-width:.620732"/><path class="cls-1" d="M54.687.248V12.85l-2.235-1.738-8.07-6.207v7.945h-2.296V.31l2.234 1.738 8.07 6.208V.248Z" id="path6" style="fill:#fafafa;fill-opacity:1;stroke-width:.620732"/><path class="cls-1" d="M58.721 6.518a4.035 4.035 0 0 0 4.035 4.034h5.525v2.235h-5.463a6.3 6.3 0 0 1 0-12.6h5.463v2.296h-5.463a4.035 4.035 0 0 0-4.097 4.035z" id="path7" style="fill:#fafafa;fill-opacity:1;stroke-width:.620732"/><path class="cls-1" d="M87.4 12.787ZM100 .187l-4.842 6.33-.248.373v5.96h-2.235V6.89l-.31-.372L87.399.186h2.855l3.477 4.47 3.414-4.47z" id="path8" style="fill:#fafafa;fill-opacity:1;stroke-width:.620732"/><path class="cls-1" d="M52.452 27.312V14.836h2.235v12.476z" id="path9" style="fill:#fafafa;fill-opacity:1;stroke-width:.620732"/><path class="cls-1" d="M66.046 18.312a1.18 1.18 0 0 0-1.117-1.118h-5.09a1.18 1.18 0 0 0-1.118 1.118 1.18 1.18 0 0 0 1.118 1.117h4.531a3.91 3.91 0 0 1 2.917 1.303l.125.187a3.973 3.973 0 0 1-3.104 6.393h-3.91a3.973 3.973 0 0 1-3.911-3.91h2.234a1.738 1.738 0 0 0 1.738 1.738h3.911a1.738 1.738 0 1 0 0-3.414h-4.531a3.352 3.352 0 0 1-2.36-.931l-.434-.56a3.29 3.29 0 0 1-.558-1.923 3.352 3.352 0 0 1 3.352-3.352h5.09a3.414 3.414 0 0 1 3.352 3.352z" id="path10" style="fill:#fafafa;fill-opacity:1;stroke-width:.620732"/><path class="cls-1" d="M70.08 27.312V14.836h2.235v12.476z" id="path11" style="fill:#fafafa;fill-opacity:1;stroke-width:.620732"/><path class="cls-1" d="M80.323 14.836a6.207 6.207 0 0 1 4.78 10.242l-.373.372a6.145 6.145 0 0 1-4.407 1.862h-6.27V14.836h6.208zm4.035 6.269a4.035 4.035 0 0 0-4.035-4.035h-4.035v8.07h4.035a4.035 4.035 0 0 0 4.035-4.035z" id="path12" style="fill:#fafafa;fill-opacity:1;stroke-width:.620732"/><path class="cls-1" d="M90.627 18.187v1.18h7.138V21.6h-7.138v2.36a1.18 1.18 0 0 0 1.117 1.117h8.194v2.234h-8.194a3.352 3.352 0 0 1-3.352-3.352v-5.773a3.352 3.352 0 0 1 3.352-3.351h8.194v2.234h-8.194a1.18 1.18 0 0 0-1.117 1.117z" id="path13" style="fill:#fafafa;fill-opacity:1;stroke-width:.620732"/></g></svg>