<?xml version="1.0" encoding="UTF-8" standalone="no"?><!DOCTYPE svg PUBLIC "-//W3C//DTD SVG 1.1//EN" "http://www.w3.org/Graphics/SVG/1.1/DTD/svg11.dtd"><svg width="100%" height="100%" viewBox="0 0 99 27" version="1.1" xmlns="http://www.w3.org/2000/svg" xmlns:xlink="http://www.w3.org/1999/xlink" xml:space="preserve" xmlns:serif="http://www.serif.com/" style="fill-rule:evenodd;clip-rule:evenodd;stroke-linejoin:round;stroke-miterlimit:2;"><g id="g13"><g id="g2"><rect id="path1" x="69.28" y="0.245" width="2.209" height="12.457" style="fill:#131c20;fill-rule:nonzero;"/><path id="path2" d="M12.457,0.245l-0,2.21l-9.082,-0c-0.64,-0 -1.166,0.526 -1.166,1.165l0,1.166l7.977,0l0,2.209l-7.977,0l0,5.707l-2.209,0l-0,-9.082c-0,-1.828 1.485,-3.341 3.314,-3.375l9.143,0Z" style="fill:#131c20;fill-rule:nonzero;"/><path id="path3" d="M24.239,10.493l1.166,2.209l-2.516,0l-1.166,-2.209l-1.166,-2.332l-0,-0.122c-0.408,-0.656 -1.13,-1.053 -1.902,-1.044l-2.271,0l0,5.707l-2.209,0l0,-12.457l7.855,0c1.817,0 3.313,1.496 3.313,3.314c0.001,1.316 -0.768,2.518 -1.963,3.068l-0.982,0.246l1.841,3.62Zm-2.209,-5.768l0.49,-0.123c0.417,-0.176 0.686,-0.591 0.675,-1.043c0.003,-0.295 -0.107,-0.58 -0.306,-0.798c-0.229,-0.221 -0.542,-0.333 -0.859,-0.306l-5.646,-0l0,2.331l5.646,-0.061Z" style="fill:#131c20;fill-rule:nonzero;"/><path id="path4" d="M39.825,12.702l-2.516,0l-1.104,-2.209l-2.762,-5.338l-2.7,5.338l-1.166,2.209l-2.454,0l1.166,-2.209l5.154,-10.248l5.216,10.248l1.166,2.209Z" style="fill:#131c20;fill-rule:nonzero;"/><path id="path5" d="M84.682,0l-0,2.516l-2.209,1.166l-5.339,2.7l5.339,2.7l2.209,1.166l-0,2.516l-2.209,-1.166l-10.248,-5.216l10.248,-5.216l2.209,-1.166Z" style="fill:#17d7a0;fill-rule:nonzero;"/><path id="path6" d="M54.061,0.245l0,12.457l-2.209,-1.718l-7.977,-6.136l0,7.854l-2.27,0l-0,-12.395l2.209,1.718l7.977,6.136l-0,-7.916l2.27,0Z" style="fill:#131c20;fill-rule:nonzero;"/><path id="path7" d="M58.05,6.443c0,2.188 1.801,3.989 3.989,3.989l5.461,-0l0,2.209l-5.4,-0c-3.417,-0 -6.228,-2.812 -6.228,-6.228c-0,-3.417 2.811,-6.229 6.228,-6.229l5.4,0l0,2.271l-5.4,-0c-0.02,-0.001 -0.041,-0.001 -0.061,-0.001c-2.188,0 -3.989,1.801 -3.989,3.989c0,-0 0,0 0,0Z" style="fill:#131c20;fill-rule:nonzero;"/><path id="path8" d="M98.857,0.184l-4.787,6.259l-0.245,0.368l0,5.891l-2.209,0l-0,-5.891l-0.307,-0.368l-4.909,-6.259l2.823,0l3.436,4.418l3.375,-4.418l2.823,0Z" style="fill:#131c20;fill-rule:nonzero;"/></g><g id="g1"><rect id="path9" x="27.125" y="15.344" width="2.088" height="11.656" style="fill:#131c20;fill-rule:nonzero;"/><path id="path10" d="M39.825,18.591c-0.029,-0.561 -0.482,-1.015 -1.044,-1.044l-4.755,0c-0.561,0.029 -1.015,0.483 -1.044,1.044c0.029,0.561 0.483,1.015 1.044,1.044l4.233,0c1.04,-0.001 2.033,0.443 2.726,1.218l0.116,0.174c0.498,0.648 0.769,1.444 0.769,2.262c-0,2.02 -1.649,3.688 -3.669,3.711l-3.653,-0c-1.992,-0.031 -3.623,-1.661 -3.654,-3.653l2.088,-0c0,0.89 0.733,1.623 1.624,1.623l3.653,0c0.101,0.02 0.203,0.029 0.306,0.029c0.891,0 1.624,-0.733 1.624,-1.623c-0,-0.891 -0.733,-1.624 -1.624,-1.624c-0.103,-0 -0.205,0.009 -0.306,0.029l-4.233,-0c-0.82,0.01 -1.612,-0.303 -2.204,-0.87l-0.406,-0.522c-0.356,-0.53 -0.539,-1.159 -0.522,-1.798c0,-1.718 1.414,-3.131 3.132,-3.131l4.755,-0c1.706,0.03 3.101,1.425 3.132,3.131l-2.088,0Z" style="fill:#131c20;fill-rule:nonzero;"/><rect id="path11" x="43.595" y="15.344" width="2.088" height="11.656" style="fill:#131c20;fill-rule:nonzero;"/><path id="path12" d="M53.163,15.344c0.02,-0.001 0.039,-0.001 0.059,-0.001c3.181,0 5.799,2.618 5.799,5.8c0,1.382 -0.494,2.719 -1.392,3.769l-0.348,0.348c-1.081,1.112 -2.567,1.74 -4.118,1.74l-5.857,-0l0,-11.656l5.857,-0Zm3.77,5.857c-0,-2.068 -1.702,-3.77 -3.77,-3.77l-3.769,0l-0,7.539l3.769,0c2.068,0 3.77,-1.701 3.77,-3.769Z" style="fill:#131c20;fill-rule:nonzero;"/><path id="path13" d="M62.79,18.475l-0,1.102l6.669,0l-0,2.088l-6.669,-0l-0,2.203c0.029,0.562 0.483,1.015 1.044,1.044l7.655,0l-0,2.088l-7.655,-0c-1.718,-0 -3.132,-1.414 -3.132,-3.132l0,-5.393c0,-1.718 1.414,-3.131 3.132,-3.131l7.655,-0l-0,2.087l-7.655,0c-0.561,0.029 -1.015,0.483 -1.044,1.044Z" style="fill:#131c20;fill-rule:nonzero;"/></g></g></svg>